<svg xmlns="http://www.w3.org/2000/svg" viewBox="0 0 512 320" role="img" aria-label="AI brain illustration">
  <defs>
    <linearGradient id="c1" x1="0" y1="0" x2="1" y2="1">
      <stop offset="0%" stop-color="#c7d2fe"/>
      <stop offset="100%" stop-color="#bfdbfe"/>
    </linearGradient>
    <linearGradient id="c2" x1="0" y1="0" x2="1" y2="1">
      <stop offset="0%" stop-color="#6366f1"/>
      <stop offset="100%" stop-color="#2563eb"/>
    </linearGradient>
  </defs>
  <rect x="16" y="16" width="480" height="288" rx="24" fill="url(#c1)"/>
  <g transform="translate(56,48)">
    <path d="M120 48c0-26.5 21.5-48 48-48 16.3 0 30.7 8 39.6 20.2C216.8 8.3 232.6 0 250 0c30.9 0 56 25.1 56 56v8c28.7 0 52 23.3 52 52s-23.3 52-52 52h-8c0 22.1-17.9 40-40 40h-16c-13.3 0-24-10.7-24-24v-8h-16v8c0 13.3-10.7 24-24 24h-12c-22.1 0-40-17.9-40-40-30.9 0-56-25.1-56-56s25.1-56 56-56h4z" fill="#fff"/>
    <g fill="url(#c2)">
      <circle cx="96" cy="96" r="8"/>
      <circle cx="152" cy="56" r="8"/>
      <circle cx="216" cy="40" r="8"/>
      <circle cx="272" cy="72" r="8"/>
      <circle cx="320" cy="112" r="8"/>
      <circle cx="248" cy="136" r="8"/>
      <circle cx="176" cy="120" r="8"/>
    </g>
    <g stroke="url(#c2)" stroke-width="3" opacity="0.85">
      <line x1="96" y1="96" x2="152" y2="56"/>
      <line x1="152" y1="56" x2="216" y2="40"/>
      <line x1="216" y1="40" x2="272" y2="72"/>
      <line x1="272" y1="72" x2="320" y2="112"/>
      <line x1="176" y1="120" x2="248" y2="136"/>
      <line x1="176" y1="120" x2="96" y2="96"/>
    </g>
  </g>
</svg>

