<svg xmlns="http://www.w3.org/2000/svg" viewBox="0 0 640 400" role="img" aria-label="Analytics preview">
  <defs>
    <linearGradient id="bg" x1="0" y1="0" x2="1" y2="1">
      <stop offset="0%" stop-color="#eff6ff"/>
      <stop offset="100%" stop-color="#eef2ff"/>
    </linearGradient>
    <linearGradient id="bar" x1="0" y1="0" x2="0" y2="1">
      <stop offset="0%" stop-color="#60a5fa"/>
      <stop offset="100%" stop-color="#4f46e5"/>
    </linearGradient>
    <filter id="shadow" x="-20%" y="-20%" width="140%" height="140%">
      <feDropShadow dx="0" dy="4" stdDeviation="8" flood-color="#000" flood-opacity="0.12"/>
    </filter>
  </defs>
  <rect x="16" y="16" width="608" height="368" rx="24" fill="url(#bg)" filter="url(#shadow)"/>
  <g transform="translate(56,56)">
    <rect x="0" y="0" width="528" height="248" rx="16" fill="#fff"/>
    <g opacity="0.15" stroke="#1f2937">
      <line x1="0" y1="208" x2="528" y2="208"/>
      <line x1="0" y1="168" x2="528" y2="168"/>
      <line x1="0" y1="128" x2="528" y2="128"/>
      <line x1="0" y1="88" x2="528" y2="88"/>
      <line x1="0" y1="48" x2="528" y2="48"/>
    </g>
    <g>
      <rect x="24" y="120" width="36" height="88" rx="6" fill="url(#bar)"/>
      <rect x="84" y="80" width="36" height="128" rx="6" fill="url(#bar)"/>
      <rect x="144" y="40" width="36" height="168" rx="6" fill="url(#bar)"/>
      <rect x="204" y="96" width="36" height="112" rx="6" fill="url(#bar)"/>
      <rect x="264" y="64" width="36" height="144" rx="6" fill="url(#bar)"/>
      <rect x="324" y="104" width="36" height="104" rx="6" fill="url(#bar)"/>
      <rect x="384" y="72" width="36" height="136" rx="6" fill="url(#bar)"/>
      <rect x="444" y="112" width="36" height="96" rx="6" fill="url(#bar)"/>
    </g>
    <polyline points="24,196 84,172 144,124 204,156 264,132 324,160 384,144 444,156" fill="none" stroke="#10b981" stroke-width="4" stroke-linecap="round" stroke-linejoin="round"/>
  </g>
</svg>

